HIERARCHY
ROOT Hips
{
	OFFSET -14.64140 90.27770 -84.91600
	CHANNELS 6 Xposition Yposition Zposition Zrotation Xrotation Yrotation
	JOINT Spine
	{
		OFFSET 0.00000 13.20850 -1.60436
		CHANNELS 3 Zrotation Xrotation Yrotation
		JOINT Spine1
		{
			OFFSET 0.00000 8.61716 0.00000
			CHANNELS 3 Zrotation Xrotation Yrotation
			JOINT Spine2
			{
				OFFSET 0.00000 8.61717 0.00000
				CHANNELS 3 Zrotation Xrotation Yrotation
				JOINT Spine3
				{
					OFFSET 0.00000 8.61717 0.00000
					CHANNELS 3 Zrotation Xrotation Yrotation
					JOINT Neck
					{
						OFFSET 0.00000 11.07920 1.10792
						CHANNELS 3 Zrotation Xrotation Yrotation
						JOINT Neck1
						{
							OFFSET 0.00000 7.08032 0.00000
							CHANNELS 3 Zrotation Xrotation Yrotation
							JOINT Head
							{
								OFFSET 0.00000 7.08031 0.00000
								CHANNELS 3 Zrotation Xrotation Yrotation
								End site
								{
									OFFSET 0.00000 0.00000 0.00000
								}
							}
						}
					}
					JOINT RightShoulder
					{
						OFFSET -0.01000 7.91373 5.19711
						CHANNELS 3 Zrotation Xrotation Yrotation
						JOINT RightArm
						{
							OFFSET -18.41580 0.00000 0.00000
							CHANNELS 3 Zrotation Xrotation Yrotation
							JOINT RightForeArm
							{
								OFFSET -29.11090 0.00000 0.00000
								CHANNELS 3 Zrotation Xrotation Yrotation
								JOINT RightHand
								{
									OFFSET -24.65040 0.00000 0.00000
									CHANNELS 3 Zrotation Xrotation Yrotation
									JOINT RightHandThumb1
									{
										OFFSET -5.35114 -0.85590 3.97906
										CHANNELS 3 Zrotation Xrotation Yrotation
										JOINT RightHandThumb2
										{
											OFFSET -4.52789 0.00000 0.00000
											CHANNELS 3 Zrotation Xrotation Yrotation
											JOINT RightHandThumb3
											{
												OFFSET -2.46976 0.00000 0.00000
												CHANNELS 3 Zrotation Xrotation Yrotation
												End site
												{
													OFFSET 0.00000 0.00000 0.00000
												}
											}
										}
									}
									JOINT RightHandIndex1
									{
										OFFSET -14.26970 0.00000 2.88139
										CHANNELS 3 Zrotation Xrotation Yrotation
										JOINT RightHandIndex2
										{
											OFFSET -5.48836 0.00000 0.00000
											CHANNELS 3 Zrotation Xrotation Yrotation
											JOINT RightHandIndex3
											{
												OFFSET -3.01859 0.00000 0.00000
												CHANNELS 3 Zrotation Xrotation Yrotation
												End site
												{
													OFFSET 0.00000 0.00000 0.00000
												}
											}
										}
									}
									JOINT RightHandMiddle1
									{
										OFFSET -14.26970 0.00000 -0.09147
										CHANNELS 3 Zrotation Xrotation Yrotation
										JOINT RightHandMiddle2
										{
											OFFSET -6.17441 0.00000 0.00000
											CHANNELS 3 Zrotation Xrotation Yrotation
											JOINT RightHandMiddle3
											{
												OFFSET -3.56743 0.00000 0.00000
												CHANNELS 3 Zrotation Xrotation Yrotation
												End site
												{
													OFFSET 0.00000 0.00000 0.00000
												}
											}
										}
									}
									JOINT RightHandRing1
									{
										OFFSET -12.69180 0.00000 -3.06433
										CHANNELS 3 Zrotation Xrotation Yrotation
										JOINT RightHandRing2
										{
											OFFSET -5.62556 0.00000 0.00000
											CHANNELS 3 Zrotation Xrotation Yrotation
											JOINT RightHandRing3
											{
												OFFSET -3.56744 0.00000 0.00000
												CHANNELS 3 Zrotation Xrotation Yrotation
												End site
												{
													OFFSET 0.00000 0.00000 0.00000
												}
											}
										}
									}
									JOINT RightHandPinky1
									{
										OFFSET -11.11390 0.00000 -6.03719
										CHANNELS 3 Zrotation Xrotation Yrotation
										JOINT RightHandPinky2
										{
											OFFSET -4.52789 0.00000 0.00000
											CHANNELS 3 Zrotation Xrotation Yrotation
											JOINT RightHandPinky3
											{
												OFFSET -2.46976 0.00000 0.00000
												CHANNELS 3 Zrotation Xrotation Yrotation
												End site
												{
													OFFSET 0.00000 0.00000 0.00000
												}
											}
										}
									}
								}
							}
						}
					}
					JOINT LeftShoulder
					{
						OFFSET 0.01000 7.91373 5.19711
						CHANNELS 3 Zrotation Xrotation Yrotation
						JOINT LeftArm
						{
							OFFSET 18.41580 0.00000 0.00000
							CHANNELS 3 Zrotation Xrotation Yrotation
							JOINT LeftForeArm
							{
								OFFSET 29.11090 0.00000 0.00000
								CHANNELS 3 Zrotation Xrotation Yrotation
								JOINT LeftHand
								{
									OFFSET 24.65040 0.00000 0.00000
									CHANNELS 3 Zrotation Xrotation Yrotation
									JOINT LeftHandThumb1
									{
										OFFSET 5.35114 -0.85590 3.97906
										CHANNELS 3 Zrotation Xrotation Yrotation
										JOINT LeftHandThumb2
										{
											OFFSET 4.52789 0.00000 0.00000
											CHANNELS 3 Zrotation Xrotation Yrotation
											JOINT LeftHandThumb3
											{
												OFFSET 2.46977 0.00000 0.00000
												CHANNELS 3 Zrotation Xrotation Yrotation
												End site
												{
													OFFSET 0.00000 0.00000 0.00000
												}
											}
										}
									}
									JOINT LeftHandIndex1
									{
										OFFSET 14.26970 0.00000 2.88139
										CHANNELS 3 Zrotation Xrotation Yrotation
										JOINT LeftHandIndex2
										{
											OFFSET 5.48836 0.00000 0.00000
											CHANNELS 3 Zrotation Xrotation Yrotation
											JOINT LeftHandIndex3
											{
												OFFSET 3.01859 0.00000 0.00000
												CHANNELS 3 Zrotation Xrotation Yrotation
												End site
												{
													OFFSET 0.00000 0.00000 0.00000
												}
											}
										}
									}
									JOINT LeftHandMiddle1
									{
										OFFSET 14.26970 0.00000 -0.09147
										CHANNELS 3 Zrotation Xrotation Yrotation
										JOINT LeftHandMiddle2
										{
											OFFSET 6.17440 0.00000 0.00000
											CHANNELS 3 Zrotation Xrotation Yrotation
											JOINT LeftHandMiddle3
											{
												OFFSET 3.56744 0.00000 0.00000
												CHANNELS 3 Zrotation Xrotation Yrotation
												End site
												{
													OFFSET 0.00000 0.00000 0.00000
												}
											}
										}
									}
									JOINT LeftHandRing1
									{
										OFFSET 12.69180 0.00000 -3.06433
										CHANNELS 3 Zrotation Xrotation Yrotation
										JOINT LeftHandRing2
										{
											OFFSET 5.62556 0.00000 0.00000
											CHANNELS 3 Zrotation Xrotation Yrotation
											JOINT LeftHandRing3
											{
												OFFSET 3.56744 0.00000 0.00000
												CHANNELS 3 Zrotation Xrotation Yrotation
												End site
												{
													OFFSET 0.00000 0.00000 0.00000
												}
											}
										}
									}
									JOINT LeftHandPinky1
									{
										OFFSET 11.11390 0.00000 -6.03719
										CHANNELS 3 Zrotation Xrotation Yrotation
										JOINT LeftHandPinky2
										{
											OFFSET 4.52789 0.00000 0.00000
											CHANNELS 3 Zrotation Xrotation Yrotation
											JOINT LeftHandPinky3
											{
												OFFSET 2.46976 0.00000 0.00000
												CHANNELS 3 Zrotation Xrotation Yrotation
												End site
												{
													OFFSET 0.00000 0.00000 0.00000
												}
											}
										}
									}
								}
							}
						}
					}
					JOINT pCube4
					{
						OFFSET 0.00000 10.91090 1.10792
						CHANNELS 3 Zrotation Xrotation Yrotation
						End site
						{
							OFFSET 0.00000 0.00000 0.00000
						}
					}
				}
			}
		}
	}
	JOINT RightUpLeg
	{
		OFFSET -9.98441 0.00000 0.00000
		CHANNELS 3 Zrotation Xrotation Yrotation
		JOINT RightLeg
		{
			OFFSET 0.00000 -42.11790 0.00000
			CHANNELS 3 Zrotation Xrotation Yrotation
			JOINT RightFoot
			{
				OFFSET 0.00000 -45.00020 -0.00001
				CHANNELS 3 Zrotation Xrotation Yrotation
				JOINT RightForeFoot
				{
					OFFSET 0.00000 -3.74820 0.00000
					CHANNELS 3 Zrotation Xrotation Yrotation
					JOINT RightToeBase
					{
						OFFSET 0.00000 0.06325 14.43120
						CHANNELS 3 Zrotation Xrotation Yrotation
						End site
						{
							OFFSET 0.00000 0.00000 0.00000
						}
					}
				}
			}
		}
	}
	JOINT LeftUpLeg
	{
		OFFSET 9.98441 0.00000 0.00000
		CHANNELS 3 Zrotation Xrotation Yrotation
		JOINT LeftLeg
		{
			OFFSET 0.00000 -42.11800 0.00000
			CHANNELS 3 Zrotation Xrotation Yrotation
			JOINT LeftFoot
			{
				OFFSET 0.00000 -45.00070 0.00000
				CHANNELS 3 Zrotation Xrotation Yrotation
				JOINT LeftForeFoot
				{
					OFFSET 0.00000 -3.74824 0.00000
					CHANNELS 3 Zrotation Xrotation Yrotation
					JOINT LeftToeBase
					{
						OFFSET 0.00000 0.06325 14.43110
						CHANNELS 3 Zrotation Xrotation Yrotation
						End site
						{
							OFFSET 0.00000 0.00000 0.00000
						}
					}
				}
			}
		}
	}
}
MOTION
Frames: 4
Frame Time: 0.050000
-0.04372016811156135 0.017726121704543445 0.012285183208390922 0.02426224950862935 -0.035539204244785697 0.010149925425378676 -4.083832356473682 2.635842276554433 -0.6704233693865689 -0.9176833060134263 3.598996445702059 0.3893229378164061 -1.164074252777286 -1.3465976225119693 -0.9208787564846698 -0.22430852138420704 0.18815507032329407 -0.8719839518841697 -0.02820317878180229 10.739980719899245 -0.6864362389150134 -0.08502589199594911 -1.5691602829060478 -4.224254926609744 0.2813717006427807 -17.36817152241064 -0.37329735252504526 -2.282455617485635 1.2476399508211282 -13.115445227919958 72.59430312951777 10.408980858321877 10.996882414543448 34.56296898124488 6.06741672102751 95.36149903567399 18.739337666475365 -0.2889573265886214 -3.6107303664980663 4.548267034498127 -0.1577960109095515 -1.5856697969668656 -0.017917214212650356 -0.03286814787384256 -56.27594624184307 0.0039142680269387995 0.028879005745712467 -56.21516739820207 -38.80577949177395 0.03875615590319853 -0.009866971501694603 -0.037492051829635324 -0.0303624247095709 -0.0012540385025153133 0.04602008076267035 -0.04652989827502814 0.011876549164535496 -36.64500615036965 0.03072322365379536 0.0030179534677414574 -0.01328684770806749 -0.005700553584210875 0.005237506616617384 -0.04380596399726844 -0.0230113249510276 -0.01855457831449998 -19.753883771219453 0.004167533494838731 0.015120662467059103 -0.025286968700594003 0.0010733752076678084 0.04071072996793572 0.0009510156684691426 0.031114887630489384 -0.022484295564291462 24.048780164393502 0.040109245739271715 0.036104832811392665 28.909264787918584 0.03268131831625629 0.014516423106966398 28.887067845726826 0.004968680513230964 -0.013906201227994176 3.204912956753867 1.0247063713819087 11.724246191514224 -69.08860259599582 24.714787444944452 -9.451907229536241 -21.275383359232542 4.680558765644778 -75.59862192037068 -14.293357405476364 0.46700911050778815 1.3504213126328686 -0.4322874838783782 0.1174972228176419 -8.089308628291292 0.011718551343408832 -0.031423961341965415 44.59238039557201 -0.009797544214326933 0.025664154284490447 44.53333531121282 12.508250063370491 -0.009810093868690433 0.044184706058960965 -0.02701476489948124 0.0006554232429465226 0.048496273394612224 -0.01972894719860852 -0.005934528324084583 -0.018563928268856143 11.081572747745048 -0.04090631906700819 -0.0004082562698652115 0.02544767296616494 -0.03752167648243497 -0.02411000322840309 -0.00019964118195847722 0.03157473102037697 0.0217475381028042 4.7463535384995055 0.016543549257839338 -0.03278619432660515 -0.0448430343159446 0.038387995079804886 -0.018613184990771664 0.04731714489600479 0.03315568153896971 -0.038834645305481516 -5.590541852994012 0.030446179580208402 -0.02300774418035967 -6.716147759523198 -0.04676501132825166 -0.04817834003629732 -6.719820904649106 -0.005317608794002397 0.013192496876468092 -0.028209715619641404 0.027336447033574626 0.047823294610071065 8.089909055043655 3.502275893304684 -19.178127334437043 0.024698077635504658 10.413121722356154 -0.0007844442065567843 -5.573709206267353 -15.643622041481215 3.2104287909084217 -0.01568082945093482 -0.00035946614004871884 -0.049425823627350034 0.00654774242217737 4.668403884924921 -0.0069269214854104175 12.44815759050814 -8.209626274877868 6.844479631353302 0.02621738051542539 46.362020612040816 -0.04573486594822615 -4.358529959675276 -14.754385379012986 -3.8780930172403716 -0.02570600211949837 -0.03707521378427626 -0.000833455520805395 0.00298245382400129 -10.774789637598563 -0.024097053225342044 
-0.020201154813647874 0.0028586781673917167 -0.03697202639318026 -0.012407012811044497 -0.04954438295343086 0.013401692049876233 -4.185902761827138 2.6148054869432493 -0.7001356326621339 -0.9368120221168497 3.55902326548354 0.377643772585441 -1.247937026841269 -1.432978125950733 -0.9784099565870373 -0.12981802361574532 0.20535747233195564 -0.8353705648038384 0.0386215726619856 10.586020805588833 -0.8247714701599179 -0.024144829695000834 -1.5904485521960707 -4.441877880907432 0.32251391898360743 -17.238900221974273 -0.38998633068411725 -2.0725081888333228 1.2165053458490398 -12.901260836567783 72.29118355089861 9.974693245741527 10.93863728314897 36.12741339844836 6.07659888096203 95.65049114728424 18.99151740563197 -0.28866814793979123 -3.975196315583855 4.5301597995718605 -0.08279454789550941 -1.5792664375846766 -0.018491410377383197 0.008843787314004436 -56.18827186132556 0.0009338068708485215 -0.01998027738931986 -56.23732411367879 -38.818028309308076 -0.008528099470352732 -0.003510205754988248 0.02396279753471286 0.039996467717733436 -0.04018826371197479 0.024458474206075415 0.012594599757168933 0.03661001067480984 -36.71600604539055 0.040383857062146415 -0.024286623971612357 0.017662884906565805 -7.027812487033839e-05 -0.021372520832262997 0.0003288816120026685 0.022696884643033603 0.009998044016415897 -19.77630576135751 -0.018537444884811346 0.007539102624283958 0.013128744511973219 -0.022960437820699356 -0.016575709909391605 0.00828663772051059 -0.019975890231053395 0.013421832796549307 24.012872005481746 -0.04050107615934321 0.026234628052455692 28.836590401124848 -0.0076276405134516655 -0.04286837664499993 28.828197618297377 0.014295736777403822 0.02081597039070534 2.988136738071528 1.0050080483095607 11.425126993446604 -69.14173622715775 24.885630774646188 -8.970863364354345 -20.904716118554813 4.211687950906515 -74.23180649207464 -13.999833574296527 0.32349526326145134 1.4801879714915827 -0.47821373689082863 0.05635037729432316 -8.096016344368062 0.0005586027253696121 -0.038175048270376474 44.56684756000769 0.0074714894791661395 -0.014828154212222257 44.55357709989028 12.459362943510673 0.02620544688571655 -0.008023726314052727 -0.002194660798494831 0.02532314332847539 0.024203061449841492 -0.0004794497156567579 -0.019659429419774135 0.013267049612611619 11.15359608369278 0.017330150527110646 -0.028390299384871486 0.008415631638014414 -0.026016495856539968 0.00696103586778523 -0.015650860059290207 0.001174433739151659 -0.03749504429090445 4.755888653478833 0.005751395943769759 -0.006891038386949902 0.023853795733031372 0.0029754769843934993 -0.018446486434105465 -0.010615945370101087 -0.018276986043115978 0.0202331404432616 -5.609842921565951 0.02923344788959671 -0.013815067658848072 -6.713436654354779 0.03769871856178142 -0.013074345715582499 -6.6978246634040834 -0.0335231084508539 -0.023439100065707184 -0.00683446147950516 -0.0003156532480852393 -0.0067969085727520575 8.086419359657118 3.4449233916754247 -19.264778211591814 -0.0033651428030939605 10.423612261652707 0.0007001337859153488 -5.6469209654006125 -15.66136235653332 3.171412457719302 0.02978536381725452 -0.018497765177082758 0.021658950105643532 -0.024574313550430927 4.65537471490144 0.03667509274507473 12.419586932886938 -8.204261708526886 6.907525473263428 -0.0015076581506663518 46.344139966679194 0.019253548634678996 -4.288641321093245 -14.723564284410118 -3.8533723047461974 -0.04584347715875002 -0.01186856310648589 -0.002393874659407211 -0.01531326528388918 -10.741093426908083 -0.026333771362004724 
0.019141093336376598 -0.018605659511791495 -0.04411512353803478 -0.005697359520948748 0.02596949313214309 -0.000573504556055516 -4.228771526174306 2.5524828658905725 -0.6889319074476815 -0.885447837585448 3.516186638416077 0.37136442979795475 -1.1973605702770072 -1.4323121026286727 -0.9908331514746573 -0.16294043666998392 0.27184044953711084 -0.8867409542049396 0.07955797080308158 10.656614318763014 -0.8987648651030297 -0.04977998004174286 -1.4420316407881666 -4.5142233735609985 0.2962937640365451 -17.022037497369265 -0.34824940340690935 -2.064866190070095 1.2449973788030038 -12.910197570472512 72.15580845503752 9.5661756398433 10.925756492884618 37.720026582576395 6.076328382867591 95.92459437074349 18.97570209891046 -0.3239556054937896 -4.079622630004528 4.5689420626678094 -0.14515779682454605 -1.5839859458172563 0.00108794749460575 -0.013189182422071283 -56.213486999167614 -0.02784975032665008 0.0469734155597305 -56.24205306973809 -38.79967219993625 -0.008155936497475516 0.03163696704093844 -0.011956458165255321 -0.009985427935882562 -0.0003621081372667928 0.0344232151369823 0.0162932277286894 0.02606142623138313 -36.69845658785711 0.017990844132106193 0.024593421650425832 -0.002121967552369428 -0.024166632519788445 -0.03826806448276487 0.0059119505683150305 -0.03980639719840082 0.037870621537797335 -19.75303640703427 -0.021237551487197436 0.013525394263003178 0.02541849074693915 -0.0028209679182651364 0.0012282382721358893 -0.04359620382375025 -0.013362242175412847 0.00150276874545365 24.048358999418213 -0.028409241682340363 0.01039726959860977 28.859313344306244 0.009551274576084106 -0.008275019332058032 28.879718517053607 -0.0022625375021733713 0.04614652126906973 2.887234184478518 0.9663568115636054 11.363082612885348 -69.12260596405376 25.13153605060375 -8.628207772754102 -20.700031272161993 4.161583275693073 -73.43229128185054 -13.706381947565967 0.2667994630913548 1.6191065917957805 -0.513338616009872 0.0620440173691043 -8.128617504350368 0.024406815722230683 0.005733293866690715 44.5812498558215 0.013225248170491592 -0.030362561686739457 44.59828044429038 12.441728342868835 -0.03265423473650693 0.02637458573479113 -0.013383963039669424 0.043918142132774465 -0.02898610534486805 -0.04025973358535133 0.04162366618563119 0.014740619435951563 11.104787969394064 0.015127861437987729 0.04068327251035899 -0.003931722254965447 0.008776622915261848 0.020971923839254614 0.023996060449513846 0.015593419489648304 0.03252620317235324 4.79786581723527 -0.005844342060332131 0.02178439469332438 -0.02684501933167339 -0.0029810855978795654 0.0031924967593399117 -0.04945795919095128 -0.03457047898549286 -0.01310902939053469 -5.646283347040418 -0.008407281729366512 0.0005397051795388587 -6.756757418599021 0.016974490920775673 0.026225215531987017 -6.688099608180224 -0.011616469167804821 -0.034527467850682586 0.04617073593953214 0.006760426197201419 0.04162701151024371 7.997630587942497 3.4909506233887146 -19.260314184451513 -0.007016679232184035 10.374965513263911 0.04726487841992122 -5.66846420306966 -15.648488578346777 3.1565413780475806 -0.02883829458708483 -0.02981944825387567 0.025938514976687116 0.03676744596851531 4.7000413212873875 -0.02992634094260788 12.418228543023222 -8.253895310204747 6.875751384773602 0.030613478118398495 46.33199692594986 0.027380753462402208 -4.319250858718938 -14.774946378119301 -3.811256675591919 -0.013863227864144075 -0.0005993162769000831 -0.03807011025174319 0.03709360308744273 -10.708433532525413 0.029720935128585438 
-0.008665483742937461 -0.02199125234316146 0.029403203198424783 0.029373281351360993 -0.01167774396185103 0.01836846310570206 -4.239822736948652 2.40689102944458 -0.6402351534975156 -0.9019652488949842 3.527581786081072 0.3949903948657277 -1.183317670935419 -1.4666998716228659 -1.0256133284072009 -0.09358248603281608 0.26550324521044244 -0.904262008491686 0.10131492863383287 10.872178110269191 -0.8082012485063796 -0.09214244466267171 -1.2179503348116176 -4.482122017128112 0.3581577262381005 -16.755064071756806 -0.37548398610972267 -2.1977798322214106 1.2323524073895593 -12.914405256596492 72.17622180059539 9.309333753725324 10.969176747793576 39.052851471268276 6.1348356930465835 96.07169421443879 18.873939839423088 -0.24644006999793247 -4.097992763353464 4.572332750894636 -0.17308839836583859 -1.6413718570544849 -0.017867613293244242 -0.009618057355052364 -56.22335099644193 0.023033652432803847 0.000520752876506932 -56.272301235919734 -38.77367703451259 -0.03504987150549447 0.0030815068429866518 0.006304060535796834 0.043909391346552216 0.01557403394386399 -0.011941920630292806 -0.04394278905867488 -0.003766450011258487 -36.72457306142681 -0.010941531643782627 -0.016335031506119136 -0.03300001839545318 0.03178565346259056 0.02491411469458345 -0.030105471364416943 0.044281197212459704 0.0023848904237599704 -19.729467246298146 -0.024722907056967544 0.03333666518496617 0.000864676481994714 0.03150542588390683 -0.03551548346816621 0.03226198404597246 0.04191761892687148 0.023283805532086976 24.037633109951525 -0.019932034261159685 -0.0199492552692464 28.861552826738254 0.029207280475244984 0.03516523243089799 28.85223982362636 0.002033952911350077 -0.0008921295208879216 2.962719440989748 0.9902038999614154 11.425552761479606 -69.1109934140488 25.386094794065563 -8.492185561025112 -20.784936768280122 4.442059889516508 -73.24818997344222 -13.432129159295112 0.19773068471417027 1.7454161967342705 -0.5016412517404331 0.024373338327212127 -8.169368415460642 -0.009392344941347013 0.03791063576974774 44.55866090563308 -0.014425858305497287 -0.009859865878331842 44.59307586697282 12.502652590786642 -0.03472337879272361 0.02935792020391741 -0.02511427540101794 -0.027123420437438144 0.003742094922640598 -0.020817915111441352 0.02482928787516635 -0.03325800058551131 11.086239143971445 -0.040788730855210835 0.038063177450242826 -0.04194200764968326 0.004401887241598439 0.011128977920228642 0.003309697095733362 -0.0360349608736421 -0.031102534090467693 4.796496689936677 0.047627322093065125 -0.01078216907986574 -0.048724662321083405 -0.03656194603358931 -0.029114090747322935 -0.024512494878757757 0.01821271712802082 -0.00990053413463866 -5.593821271807587 0.0327745002162533 -0.022938588089748548 -6.76080689912109 -0.007386194329226545 -0.019687170447584237 -6.701098184706018 0.0382475322100911 -0.0037663641906788767 0.021281682096470043 -0.03845483490893233 0.025987402921918368 8.094359934744928 3.4517057726264713 -19.215178839553342 0.0013512308165439493 10.359135833579126 0.04691171550907729 -5.646572458630266 -15.617761024290434 3.217075456033712 -0.019489245464207352 -0.028553749798847866 0.03711580389573712 0.020198870123642576 4.672301208613077 -0.009846604019993647 12.45687007715998 -8.223231920670834 6.857939025627115 0.0056073086806164765 46.39731325085113 -0.012249625643414678 -4.348903095244459 -14.70340607106563 -3.8661390800555737 0.015183152024798304 -0.022458624156174518 -0.013278499843968604 0.020258170969965756 -10.720268550232776 -0.002063756613593058 
